<svg width="512" height="512" viewBox="0 0 512 512" fill="none" xmlns="http://www.w3.org/2000/svg">
  <rect width="512" height="512" fill="#11120F"/>
  <g opacity="0.35">
    <path d="M0 64H512" stroke="#34362D"/>
    <path d="M0 128H512" stroke="#34362D"/>
    <path d="M0 192H512" stroke="#34362D"/>
    <path d="M0 256H512" stroke="#34362D"/>
    <path d="M0 320H512" stroke="#34362D"/>
    <path d="M0 384H512" stroke="#34362D"/>
    <path d="M0 448H512" stroke="#34362D"/>
    <path d="M64 0V512" stroke="#34362D"/>
    <path d="M128 0V512" stroke="#34362D"/>
    <path d="M192 0V512" stroke="#34362D"/>
    <path d="M256 0V512" stroke="#34362D"/>
    <path d="M320 0V512" stroke="#34362D"/>
    <path d="M384 0V512" stroke="#34362D"/>
    <path d="M448 0V512" stroke="#34362D"/>
  </g>
  <circle cx="158" cy="204" r="8" fill="#5FC8D8"/>
  <circle cx="256" cy="142" r="9" fill="#D1B16D"/>
  <circle cx="334" cy="258" r="10" fill="#EF8F45"/>
  <circle cx="398" cy="168" r="7" fill="#D6DD7B"/>
  <path d="M158 204C200 190 224 170 256 142C286 116 332 108 398 168" stroke="#5FC8D8" stroke-width="3" stroke-linecap="round"/>
  <path d="M158 204C214 242 262 252 334 258" stroke="#D1B16D" stroke-width="2" stroke-dasharray="5 5" stroke-linecap="round"/>
  <circle cx="334" cy="258" r="68" stroke="#D6DD7B" stroke-width="2" stroke-dasharray="4 6"/>
</svg>
